<?xml version="1.0" encoding="utf-8"?>
<!-- Generator: Adobe Illustrator 25.4.1, SVG Export Plug-In . SVG Version: 6.00 Build 0)  -->
<svg version="1.1" id="Layer_1" xmlns="http://www.w3.org/2000/svg" xmlns:xlink="http://www.w3.org/1999/xlink" x="0px" y="0px"
	 viewBox="0 0 336.8 79.8" style="enable-background:new 0 0 336.8 79.8;" xml:space="preserve">
<style type="text/css">
	.st0{fill:url(#SVGID_1_);}
</style>
<linearGradient id="SVGID_1_" gradientUnits="userSpaceOnUse" x1="-200" y1="-200" x2="0" y2="200">
	<stop  offset="0.3376" style="stop-color:#242424"/>
	<stop  offset="0.4416" style="stop-color:#FFFFFF"/>
	<stop  offset="0.7183" style="stop-color:#242424"/>

	<animate attributeName="x1" dur="2000ms" from="-200" to="600" repeatCount="indefinite" />
	<animate attributeName="x2" dur="2000ms" from="0" to="800" repeatCount="indefinite" />


</linearGradient>
<path class="st0" d="M32,48c-0.5-0.8-0.5-1.5-0.1-2.3l0.1-0.1c0.7-1.3,1.6-1.3,2.3,0l17.4,32.1c0.7,1.3,0.1,2.1-1.1,2.1h-14
	c-0.9,0-1.6-0.3-2.1-1.3L21.2,53.9c-0.5-0.8-0.5-1.5,0-2.3l25-46.2c0.7-1.3,0.1-2.1-1.1-2.1h-6.6c-0.9,0-1.6,0.3-2.1,1.3L17.8,38.9
	c-0.5,0.8-0.6,1.4-0.7,2.2v37c0,1.1-0.6,1.7-1.7,1.7H1.7c-1.1,0-1.7-0.6-1.7-1.7V1.7C0,0.6,0.6,0,1.7,0h13.7c1.1,0,1.7,0.6,1.7,1.7
	v23.4c0,0.8-0.1,1.4-0.6,2.2l-0.8,1.5c-0.8,1.5-2.1,1.1-2.1-0.6v-23c0-1.1-0.6-1.7-1.7-1.7H5.1C4,3.4,3.4,4,3.4,5.1v69.5
	c0,1.1,0.6,1.7,1.7,1.7H12c1.1,0,1.7-0.6,1.7-1.7V40.8c0-0.8,0.1-1.4,0.6-2.2L34.5,1.3C35,0.3,35.7,0,36.6,0h14
	c1.3,0,1.8,0.8,1.1,2.1L25,51.6c-0.5,0.8-0.5,1.5,0,2.3l11.4,21.2c0.5,0.9,1.1,1.3,2.1,1.3H45c1.4,0,1.8-0.8,1.1-2.1L32,48z
	 M90.6,48c-0.5-0.8-0.5-1.5-0.1-2.3l0.1-0.1c0.7-1.3,1.6-1.3,2.3,0l17.4,32.1c0.7,1.3,0.1,2.1-1.1,2.1h-14c-0.9,0-1.6-0.3-2.1-1.3
	L79.8,53.9c-0.5-0.8-0.5-1.5,0-2.3l25-46.2c0.7-1.3,0.1-2.1-1.1-2.1H97c-0.9,0-1.6,0.3-2.1,1.3L76.4,38.9c-0.5,0.8-0.6,1.4-0.7,2.2
	v37c0,1.1-0.6,1.7-1.7,1.7H60.3c-1.1,0-1.7-0.6-1.7-1.7V1.7c0-1.1,0.6-1.7,1.7-1.7H74c1.1,0,1.7,0.6,1.7,1.7v23.4
	c0,0.8-0.1,1.4-0.6,2.2l-0.8,1.5c-0.8,1.5-2.1,1.1-2.1-0.6v-23c0-1.1-0.6-1.7-1.7-1.7h-6.8C62.6,3.4,62,4,62,5.1v69.5
	c0,1.1,0.6,1.7,1.7,1.7h6.8c1.1,0,1.7-0.6,1.7-1.7V40.8c0-0.8,0.1-1.4,0.6-2.2L93.1,1.3C93.6,0.3,94.3,0,95.2,0h14
	c1.3,0,1.8,0.8,1.1,2.1L83.6,51.6c-0.5,0.8-0.5,1.5,0,2.3L95,75.1c0.5,0.9,1.1,1.3,2.1,1.3h6.6c1.4,0,1.8-0.8,1.1-2.1L90.6,48z
	 M167.6,1.4c0.5-0.9,1-1.4,2.1-1.4c1.1,0,1.6,0.8,1.1,1.9l-29.4,76.5c-0.5,0.9-1,1.4-2.1,1.4h-14c-1.4,0-1.8-0.8-1.4-1.9l27.5-72.5
	c0.5-1.1,0-1.9-1.4-1.9h-27.7c-1.1,0-1.7,0.6-1.7,1.7v5.9c0,1.1,0.6,1.7,1.7,1.7h19.2c1.4,0,1.9,0.7,1.5,1.7l-0.2,0.5
	c-0.5,0.9-1.1,1.3-2.1,1.3h-21.8c-1.1,0-1.7-0.6-1.7-1.7V1.7c0-1.1,0.6-1.7,1.7-1.7h35.9c1.4,0,1.8,0.8,1.4,1.9l-27.5,72.5
	c-0.5,1.1,0,1.9,1.4,1.9h7.4c1,0,1.6-0.5,2.1-1.4L167.6,1.4z M202.6,0c14.1,0,25.6,11.5,25.6,25.6v28.5c0,14.1-11.5,25.6-25.6,25.6
	h-23.4c-1.1,0-1.7-0.6-1.7-1.7V1.7c0-1.1,0.6-1.7,1.7-1.7c1.1,0,1.7,0.6,1.7,1.7v73c0,1.1,0.6,1.7,1.7,1.7h20
	c5.9,0,11.5-2.3,15.7-6.5s6.5-9.8,6.5-15.7V25.6c0-5.9-2.3-11.5-6.5-15.7s-9.8-6.5-15.7-6.5h-6.8c-1.1,0-1.7,0.6-1.7,1.7v56.2
	c0,1.1,0.6,1.7,1.7,1.7h5.7c5.7,0,10.3-4.6,10.3-10.3V27.1c0-5.7-4.6-10.3-10.3-10.3h-2.5c-1.1,0-1.7-0.6-1.7-1.7
	c0-1.1,0.6-1.7,1.7-1.7h2.5c7.5,0,13.7,6,13.7,13.7v25.6c0,7.5-6.2,13.7-13.7,13.7h-9.1c-1.1,0-1.7-0.6-1.7-1.7v-63
	c0-1.1,0.6-1.7,1.7-1.7H202.6z M284.9,0c1.4,0,1.8,0.8,1.3,2.1l-18.4,36.7c-0.3,0.8-0.3,1.5,0,2.3l18.4,36.7
	c0.6,1.3,0.1,2.1-1.3,2.1h-14c-0.9,0-1.6-0.3-1.9-1.3l-16.4-32.7c-0.6-1.3-1.7-1.3-2.3,0L236,74.3c-0.6,1.3-0.1,2.1,1.3,2.1h6.6
	c0.9,0,1.6-0.3,1.9-1.3l7.6-15.2c0.6-1.3,1.6-1.5,2.2-0.5l0.3,0.8c0.5,0.8,0.3,1.5,0,2.3l-8.1,16c-0.3,0.9-1,1.3-1.9,1.3h-14
	c-1.4,0-1.8-0.8-1.3-2.1l19.6-39.3c0.6-1.3,1.7-1.3,2.3,0L271,75.1c0.3,0.9,1,1.3,1.9,1.3h6.6c1.4,0,1.8-0.8,1.3-2.1L264,41
	c-0.3-0.8-0.3-1.5,0-2.3l16.8-33.3c0.6-1.3,0.1-2.1-1.3-2.1h-6.6c-0.9,0-1.6,0.3-1.9,1.3l-11.5,22.7c-0.6,1.3-1.7,1.3-2.3,0
	L245.8,4.7c-0.3-0.9-1-1.3-1.9-1.3h-6.6c-1.4,0-1.8,0.8-1.3,2.1l12.9,25.8c0.3,0.8,0.3,1.5,0,2.3l-0.1,0.2c-0.6,1.3-1.7,1.3-2.3,0
	L230.6,2.1C230,0.8,230.5,0,231.9,0h14c0.9,0,1.6,0.3,1.9,1.3l9.3,18.7c0.6,1.3,1.7,1.3,2.3,0l9.5-18.7c0.3-0.9,1-1.3,1.9-1.3H284.9
	z M336.8,15c0,1.1-0.6,1.7-1.7,1.7h-23.9c-1.1,0-1.7,0.6-1.7,1.7v10.8c0,1.1,0.6,1.7,1.7,1.7h17.1c1.1,0,1.7,0.6,1.7,1.7v12.5
	c0,1.1-0.6,1.7-1.7,1.7h-13.7c-1.1,0-1.7-0.6-1.7-1.7c0-1.1,0.6-1.7,1.7-1.7h10.3c1.1,0,1.7-0.6,1.7-1.7v-5.7c0-1.1-0.6-1.7-1.7-1.7
	h-17.1c-1.1,0-1.7-0.6-1.7-1.7V15c0-1.1,0.6-1.7,1.7-1.7h23.9c1.1,0,1.7-0.6,1.7-1.7V5.1c0-1.1-0.6-1.7-1.7-1.7H298
	c-1.1,0-1.7,0.6-1.7,1.7v36.7c0,1.1,0.6,1.7,1.7,1.7h9.7c1.1,0,1.7,0.6,1.7,1.7v16c0,1.1,0.6,1.7,1.7,1.7H335c1.1,0,1.7,0.6,1.7,1.7
	v13.5c0,1.1-0.6,1.7-1.7,1.7h-40.5c-1.1,0-1.7-0.6-1.7-1.7v-26c0-1.1,0.6-1.7,1.7-1.7c1.1,0,1.7,0.6,1.7,1.7v22.6
	c0,1.1,0.6,1.7,1.7,1.7h33.6c1.1,0,1.7-0.6,1.7-1.7v-6.6c0-1.1-0.6-1.7-1.7-1.7h-23.9c-1.1,0-1.7-0.6-1.7-1.7v-16
	c0-1.1-0.6-1.7-1.7-1.7h-9.7c-1.1,0-1.7-0.6-1.7-1.7V1.7c0-1.1,0.6-1.7,1.7-1.7H335c1.1,0,1.7,0.6,1.7,1.7V15z"/>
</svg>
