<?xml version="1.0" encoding="utf-8"?>
<!-- Generator: Adobe Illustrator 25.4.1, SVG Export Plug-In . SVG Version: 6.00 Build 0)  -->
<svg version="1.1" id="Layer_1" xmlns="http://www.w3.org/2000/svg" xmlns:xlink="http://www.w3.org/1999/xlink" x="0px" y="0px"
	 viewBox="0 0 336.8 79.8" style="enable-background:new 0 0 336.8 79.8;" xml:space="preserve">
<style type="text/css">
	.st0{fill:url(#SVGID_1_);}
</style>
<linearGradient id="SVGID_1_" gradientUnits="userSpaceOnUse" x1="-200" y1="-200" x2="0" y2="200">
	<stop  offset="0.3376" style="stop-color:#242424"/>
	<stop  offset="0.4416" style="stop-color:#FFFFFF"/>
	<stop  offset="0.7183" style="stop-color:#242424"/>
	
	<animate attributeName="x1" dur="2000ms" from="-200" to="600" repeatCount="indefinite" />
	<animate attributeName="x2" dur="2000ms" from="0" to="800" repeatCount="indefinite" />
</linearGradient>
<path class="st0" d="M107.5,1.4c1.2,0,1.8,0.7,1.5,1.8L94.8,77c-0.2,1-0.9,1.4-1.9,1.4H79c-1,0-1.7-0.4-1.9-1.4L72,49.6
	c-0.2-0.7-0.2-1.3,0-2l0.4-2.5c0.3-1.5,1.7-1.5,2,0l5.4,28.6c0.2,1,0.9,1.4,1.9,1.4h8.7c1,0,1.7-0.4,1.9-1.4l12.9-67.2
	c0.2-1.1-0.3-1.8-1.5-1.8h-5.9c-1,0-1.7,0.4-1.9,1.4L86.9,52c-0.3,1.7-1.7,1.7-2,0l-7.6-39.8c-0.3-1.7-1.7-1.7-2,0L62.9,77
	c-0.2,1-0.9,1.4-1.9,1.4h-14c-1,0-1.7-0.4-1.9-1.4L31,3.1c-0.2-1.1,0.3-1.8,1.5-1.8h12.5c1,0,1.7,0.4,1.9,1.4l6.1,32
	c0.3,1.7,1.7,1.7,2,0l6.2-32c0.2-1,0.9-1.4,1.9-1.4c1.1,0,1.7,0.7,1.4,1.8L55,52c-0.3,1.7-1.7,1.7-2,0L44.3,6.1
	c-0.2-1-0.9-1.4-1.9-1.4h-5.9c-1.2,0-1.8,0.7-1.5,1.8l12.9,67.2c0.2,1,0.9,1.4,1.9,1.4h8.7c1,0,1.7-0.4,1.9-1.4L73.8,2.8
	c0.2-1,0.9-1.4,1.9-1.4H77c1,0,1.7,0.4,1.9,1.4l6.1,32c0.3,1.7,1.7,1.7,2,0l6.2-32c0.2-1,0.9-1.4,1.9-1.4H107.5z M139.6,61.4
	c0,1.1,0.5,1.7,1.7,1.7h6.6c1.1,0,1.7,0.6,1.7,1.7v12.1c0,1.1-0.5,1.7-1.7,1.7h-16.6c-1.1,0-1.7-0.6-1.7-1.7c0-1.1,0.6-1.7,1.7-1.7
	h13.3c1.1,0,1.7-0.6,1.7-1.7V68c0-1.1-0.6-1.7-1.7-1.7h-6.6c-1.1,0-1.7-0.6-1.7-1.7V7.4c0-1.1-0.7-1.7-1.9-1.4l-14.9,4.1
	c-1,0.2-1.4,0.8-1.4,1.8v5.5c0,1.1,0.7,1.7,1.9,1.4l4.5-1.2c1.2-0.3,1.9,0.2,1.9,1.3v57.9c0,1.1-0.5,1.7-1.7,1.7h-13.2
	c-1.1,0-1.7-0.6-1.7-1.7V64.7c0-1.1,0.5-1.7,1.7-1.7h6.6c1.1,0,1.7,0.6,1.7,1.7c0,1.1-0.5,1.7-1.7,1.7h-3.3c-1.1,0-1.7,0.5-1.7,1.7
	v5.5c0,1.1,0.6,1.7,1.7,1.7h6.6c1.1,0,1.7-0.6,1.7-1.7V23.1c0-1.1-0.7-1.7-1.9-1.4l-4.5,1.2c-1.2,0.3-1.9-0.2-1.9-1.3V9.4
	c0-1,0.4-1.5,1.4-1.8l21.5-5.7c1.2-0.3,1.9,0.2,1.9,1.3V61.4z M202.8,76.8c0,1.1-0.5,1.7-1.7,1.7h-31.4c-1.1,0-1.7-0.6-1.7-1.7V6.3
	c0-1.1-0.6-1.7-1.7-1.7h-6.6c-1.1,0-1.7,0.5-1.7,1.7v70.4c0,1.1-0.5,1.7-1.7,1.7s-1.7-0.6-1.7-1.7V3c0-1.1,0.5-1.7,1.7-1.7h13.2
	c1.1,0,1.7,0.5,1.7,1.7v70.4c0,1.1,0.6,1.7,1.7,1.7h24.8c1.1,0,1.7-0.6,1.7-1.7V68c0-1.1-0.5-1.7-1.7-1.7h-21.5
	c-1.1,0-1.7-0.6-1.7-1.7c0-1.1,0.5-1.7,1.7-1.7h24.8c1.1,0,1.7,0.6,1.7,1.7V76.8z M239.3,47.7c-0.4-0.8-0.4-1.4-0.1-2.2l0.1-0.1
	c0.7-1.2,1.5-1.2,2.2,0l16.8,31c0.7,1.2,0.1,2-1.1,2h-13.5c-0.9,0-1.5-0.3-2-1.2l-12.9-23.8c-0.4-0.8-0.4-1.4,0-2.2l24.1-44.6
	c0.7-1.2,0.1-2-1.1-2h-6.4c-0.9,0-1.5,0.3-2,1.2l-17.9,33c-0.4,0.8-0.5,1.3-0.7,2.1v35.8c0,1.1-0.5,1.7-1.7,1.7H210
	c-1.1,0-1.7-0.6-1.7-1.7V3c0-1.1,0.5-1.7,1.7-1.7h13.2c1.1,0,1.7,0.5,1.7,1.7v22.6c0,0.8-0.1,1.3-0.5,2.1l-0.8,1.4
	c-0.8,1.4-2,1.1-2-0.6V6.3c0-1.1-0.6-1.7-1.7-1.7h-6.6c-1.1,0-1.7,0.5-1.7,1.7v67.1c0,1.1,0.6,1.7,1.7,1.7h6.6
	c1.1,0,1.7-0.6,1.7-1.7V40.8c0-0.8,0.1-1.3,0.5-2.1l19.6-36.1c0.4-0.9,1.1-1.2,2-1.2h13.5c1.2,0,1.8,0.8,1.1,2l-25.9,47.9
	c-0.4,0.8-0.4,1.4,0,2.2l11,20.5c0.4,0.9,1.1,1.2,2,1.2h6.4c1.3,0,1.8-0.8,1.1-2L239.3,47.7z M305.8,54.5c0,14-11.3,25.3-25.3,25.3
	c-14,0-25.3-11.3-25.3-25.4v-8.8c0-1.2,0.7-1.8,1.7-1.4l0.4,0.2c0.9,0.3,1.2,1,1.2,1.9v8.1c0,5.9,2.3,11.4,6.5,15.6
	c4.1,4.2,9.7,6.4,15.5,6.4c5.8,0,11.4-2.2,15.5-6.4c4.2-4.2,6.5-9.7,6.5-15.6V25.3c0-5.8-2.3-11.3-6.5-15.5
	c-4.1-4.2-9.7-6.5-15.5-6.5c-5.8,0-11.4,2.3-15.5,6.5c-4.2,4.2-6.5,9.7-6.5,15.5v11.2c0,0.9,0.4,1.5,1.2,1.9L270,43
	c0.8,0.3,1.2,1,1.2,1.9v9.6c0,5.2,4.2,9.4,9.4,9.4c5.2,0,9.4-4.2,9.4-9.4V25.3c0-5.1-4.2-9.4-9.4-9.4c-5.2,0-9.4,4.3-9.4,9.4v12.5
	c0,1.2-0.7,1.8-1.7,1.3l-0.4-0.2c-0.9-0.3-1.2-1-1.2-1.9V25.3c0-6.9,5.6-12.7,12.7-12.7c7,0,12.7,5.7,12.7,12.7v29.3
	c0,6.9-5.7,12.5-12.7,12.5c-7,0-12.7-5.6-12.7-12.7v-7.6c0-0.9-0.4-1.5-1.2-1.9l-10.2-4.5c-0.8-0.3-1.2-1-1.2-1.9V25.3
	c0-14,11.3-25.3,25.3-25.3c14,0,25.3,11.3,25.3,25.3V54.5z"/>
</svg>
